#N canvas 32 52 1309 714 10;
#N canvas 0 50 450 250 (subpatch) 0;
#X array NoteView 600 float 2;
#X coords 0 1 600 -1 100 100 1;
#X restore 373 376 graph;
#X obj 1994 623 tgl 15 0 empty start empty 17 7 0 10 -4034 -1 -1 0
1;
#X obj 1759 434 *~;
#X obj 1824 418 line~;
#X obj 1862 187 bng 15 250 50 0 empty empty empty 17 7 0 10 -262144
-1 -1;
#X obj 1759 220 sig~;
#X obj 1759 195 mtof;
#X floatatom 1759 173 5 0 0 0 - - -;
#X obj 32 37 tgl 15 0 empty start empty 17 7 0 10 -4034 -1 -1 0 1;
#X floatatom 1514 372 5 0 0 0 - - -;
#X obj 1759 147 r nota;
#X obj 32 57 metro 125;
#X text 128 356 C;
#X text 128 235 E;
#X text 128 251 F;
#X text 128 281 G;
#X text 128 340 B;
#X obj 140 177 vradio 15 1 0 13 empty empty empty 0 -8 0 10 -228856
-260097 -1 6;
#X obj 157 177 vradio 15 1 0 13 empty empty empty 0 -8 0 10 -228856
-260097 -1 7;
#X obj 174 177 vradio 15 1 0 13 empty empty empty 0 -8 0 10 -228856
-260097 -1 6;
#X obj 191 177 vradio 15 1 0 13 empty empty empty 0 -8 0 10 -228856
-260097 -1 5;
#X obj 208 177 vradio 15 1 0 13 empty empty empty 0 -8 0 10 -228856
-260097 -1 4;
#X obj 225 177 vradio 15 1 0 13 empty empty empty 0 -8 0 10 -228856
-260097 -1 4;
#X obj 243 177 vradio 15 1 0 13 empty empty empty 0 -8 0 10 -228856
-260097 -1 4;
#X obj 260 177 vradio 15 1 0 13 empty empty empty 0 -8 0 10 -228856
-260097 -1 5;
#X obj 277 177 vradio 15 1 0 13 empty empty empty 0 -8 0 10 -228856
-260097 -1 6;
#X obj 294 177 vradio 15 1 0 13 empty empty empty 0 -8 0 10 -228856
-260097 -1 7;
#X obj 311 177 vradio 15 1 0 13 empty empty empty 0 -8 0 10 -228856
-260097 -1 6;
#X obj 328 177 vradio 15 1 0 13 empty empty empty 0 -8 0 10 -228856
-260097 -1 5;
#X obj 345 177 vradio 15 1 0 13 empty empty empty 0 -8 0 10 -228856
-260097 -1 4;
#X obj 362 177 vradio 15 1 0 13 empty empty empty 0 -8 0 10 -228856
-260097 -1 4;
#X obj 379 177 vradio 15 1 0 13 empty empty empty 0 -8 0 10 -228856
-260097 -1 4;
#X obj 396 177 vradio 15 1 0 13 empty empty empty 0 -8 0 10 -228856
-260097 -1 5;
#X msg 1862 365 \$1 \$2;
#X obj 1862 340 pack f f;
#X floatatom 1915 318 5 0 0 0 - - -;
#X obj 1862 290 bng 15 250 50 0 empty empty empty 17 7 0 10 -262144
-1 -1;
#X msg 1862 316 0;
#X msg 1915 295 245;
#X obj 1915 272 bng 15 250 50 0 empty empty empty 17 7 0 10 -4034 -1
-1;
#X obj 1979 462 loadbang;
#X obj 1816 495 hsl 128 15 0 500 0 0 empty sendlopseq empty -2 -8 0
10 -262144 -1 -1 6350 1;
#X floatatom 1825 517 10 0 0 0 - - -;
#X obj 413 177 vradio 15 1 0 13 empty empty empty 0 -8 0 10 -228856
-260097 -1 6;
#X obj 430 177 vradio 15 1 0 13 empty empty empty 0 -8 0 10 -228856
-260097 -1 7;
#X obj 447 177 vradio 15 1 0 13 empty empty empty 0 -8 0 10 -228856
-260097 -1 6;
#X obj 464 177 vradio 15 1 0 13 empty empty empty 0 -8 0 10 -228856
-260097 -1 5;
#X obj -256 147 route 0 1 2 3 4 5 6 7 8 9 10 11 12 13 14 15 16 17 18
19 20 21 22 23 24;
#X obj 481 177 vradio 15 1 0 13 empty empty empty 0 -8 0 10 -228856
-260097 -1 4;
#X obj 498 177 vradio 15 1 0 13 empty empty empty 0 -8 0 10 -228856
-260097 -1 4;
#X obj 515 177 vradio 15 1 0 13 empty empty empty 0 -8 0 10 -228856
-260097 -1 5;
#X obj 532 177 vradio 15 1 0 13 empty empty empty 0 -8 0 10 -228856
-260097 -1 6;
#X obj 140 159 hradio 17 1 0 24 empty empty empty 0 -8 0 10 -191407
-128992 -1 10;
#X obj 770 342 VU~;
#X obj 1827 359 1 5;
#X obj 1862 266 del 5;
#N canvas 292 176 450 300 counter 0;
#X msg 213 104 1;
#X obj 213 126 + 1;
#X floatatom 213 148 5 0 0 0 - - -;
#X obj 213 85 bng 15 250 50 0 empty empty empty 17 7 0 10 -262144 -1
-1;
#X obj 237 195 sel 1;
#X msg 237 221 0;
#X obj 179 181 - 1;
#X obj 162 227 outlet;
#X obj 213 60 inlet;
#X obj 237 172 == 24;
#X connect 0 0 1 0;
#X connect 1 0 2 0;
#X connect 2 0 1 1;
#X connect 2 0 6 0;
#X connect 2 0 9 0;
#X connect 3 0 0 0;
#X connect 4 0 5 0;
#X connect 5 0 1 1;
#X connect 6 0 7 0;
#X connect 8 0 3 0;
#X connect 9 0 4 0;
#X restore 32 84 pd counter;
#X obj 144 378 hsl 220 45 10 3000 0 0 sendlength empty empty -2 -8
0 10 -228856 -260097 -1 0 1;
#X obj 1972 287 r sendlength;
#X obj 1994 669 tabwrite~ NoteView;
#X obj 502 109 tgl 45 0 start empty empty 17 7 0 10 -4034 -1 -1 0 1
;
#X text 505 124 ON/OFF;
#X text 222 391 RESONANCE;
#X obj 401 732 s nota;
#X obj 1514 598 bng 15 250 50 0 empty empty empty 17 7 0 10 -262144
-1 -1;
#X obj 1514 438 != 0;
#X text 128 311 A;
#X text 125 205 D;
#X text 112 174 OFF-;
#X text 124 190 C#;
#X text 124 221 D#;
#X text 124 265 F#;
#X text 124 296 G#;
#X text 124 325 A#;
#X text 338 121 = KEY SEQUENCER =;
#X obj 502 72 loadbang;
#X obj 1758 510 lop~;
#X obj 479 378 vsl 20 95 25 500 0 0 sendlopseq receivelopseq empty
0 -9 0 10 -228856 -260097 -1 4453 1;
#X obj 1994 646 metro 100;
#N canvas 130 55 1034 711 octaves 0;
#X msg 695 332 96;
#X floatatom 582 406 6 0 0 0 - - -;
#X text 625 178 Selects Addition Pathway for the exact octave desired
to be played;
#X obj 105 105 hradio 22 1 0 9 empty empty empty 0 0 0 10 -228856 -260097
-1 0;
#X obj 578 217 hradio 22 1 0 10 empty empty empty 0 0 0 10 -228856
-260097 -1 0;
#X floatatom 578 249 5 0 0 0 - - -;
#X msg 460 321 24;
#X msg 505 323 36;
#X msg 550 326 48;
#X msg 585 329 60;
#X msg 624 337 72;
#X msg 660 331 84;
#X msg 787 333 120;
#X msg 742 334 108;
#X obj 582 449 outlet;
#X text 195 130 OCTAVES;
#X obj 551 280 select 0 1 2 3 4 5 6 7 8;
#X obj 105 58 inlet;
#X connect 0 0 1 0;
#X connect 1 0 14 0;
#X connect 3 0 4 0;
#X connect 4 0 5 0;
#X connect 5 0 16 0;
#X connect 6 0 1 0;
#X connect 7 0 1 0;
#X connect 8 0 1 0;
#X connect 9 0 1 0;
#X connect 10 0 1 0;
#X connect 11 0 1 0;
#X connect 12 0 1 0;
#X connect 13 0 1 0;
#X connect 16 0 6 0;
#X connect 16 1 7 0;
#X connect 16 2 8 0;
#X connect 16 3 9 0;
#X connect 16 4 10 0;
#X connect 16 5 11 0;
#X connect 16 6 0 0;
#X connect 16 7 13 0;
#X connect 16 8 12 0;
#X connect 17 0 3 0;
#X coords 0 -1 1 1 210 50 2 100 100;
#X restore 141 427 pd octaves;
#N canvas 420 143 609 333 bpm 0;
#X floatatom 258 17 5 0 0 0 Bpm - -;
#X obj 288 128 / 2;
#X obj 355 91 hradio 15 1 0 4 empty empty empty 0 -8 0 10 -262144 -1
-1 2;
#X msg 355 142 1;
#X msg 395 142 2;
#X msg 435 142 4;
#X msg 473 141 8;
#X obj 355 110 route 0 1 2 3;
#X floatatom 356 172 5 0 0 0 - - -;
#X obj 401 175 bng 15 250 50 0 empty empty empty 17 7 0 10 -262144
-1 -1;
#X obj 288 224 outlet;
#X obj 114 124 hradio 15 1 0 4 empty empty empty 0 -8 0 10 -260097
-1 -1 2;
#X text 118 108 4;
#X text 130 107 8;
#X text 142 108 16;
#X text 160 108 32;
#X floatatom 205 121 5 0 0 0 Bpm - -;
#X obj 95 28 bng 15 250 50 0 empty start empty 17 7 0 10 -4034 -1 -1
;
#X obj 206 174 s bpmset;
#X floatatom 138 64 5 0 0 0 - - -;
#X obj 164 29 r bpmset;
#X text 312 63 Splitting of the BPM into tempos;
#X obj 257 47 expr (60000)/$f1;
#X msg -10 49 80;
#X obj -10 20 loadbang;
#X obj 64 2 inlet for audio demo #1;
#X obj 317 2 inlet for audio demo bpm #1;
#X connect 0 0 22 0;
#X connect 1 0 10 0;
#X connect 2 0 7 0;
#X connect 3 0 8 0;
#X connect 4 0 8 0;
#X connect 5 0 8 0;
#X connect 6 0 8 0;
#X connect 7 0 3 0;
#X connect 7 1 4 0;
#X connect 7 2 5 0;
#X connect 7 3 6 0;
#X connect 8 0 1 1;
#X connect 8 0 9 0;
#X connect 9 0 0 0;
#X connect 11 0 2 0;
#X connect 16 0 0 0;
#X connect 16 0 18 0;
#X connect 17 0 19 0;
#X connect 19 0 16 0;
#X connect 20 0 19 0;
#X connect 22 0 1 0;
#X connect 23 0 0 0;
#X connect 23 0 19 0;
#X connect 23 0 16 0;
#X connect 24 0 23 0;
#X connect 25 0 11 0;
#X connect 26 0 16 0;
#X coords 0 -1 1 1 145 50 2 100 100;
#X restore 140 106 pd bpm;
#X msg 1885 427 250;
#X text 1916 434 Loadbang message of 250Hz LPF;
#X text 376 479 LOW-PASS-FILTER - ↑;
#X obj 140 47 s FINALBPM;
#X obj 523 446 bng 30 250 50 0 empty empty empty 17 7 0 10 -4034 -260097
-1;
#X text 512 414 NORMALIZE;
#X text 506 427 Drawn Wave;
#X text 105 158 NOTES;
#X text 1667 124 Recieve MIDI notes and put through the wavetable synth
;
#N canvas 0 22 450 300 (subpatch) 0;
#X array SEQwave 131 float 3;
#A 0 0.72689 0.754163 0.767799 0.790526 0.794422 0.798319 0.802215
0.806111 0.810007 0.813903 0.817799 0.817799 0.813254 0.808708 0.804163
0.799617 0.795072 0.790526 0.785981 0.781435 0.779163 0.77689 0.774617
0.772345 0.770072 0.767799 0.765526 0.763254 0.758708 0.754163 0.754163
0.747551 0.74094 0.734328 0.727717 0.721105 0.714494 0.707882 0.70127
0.694659 0.688047 0.681436 0.67689 0.672345 0.665072 0.657799 0.650527
0.643254 0.635981 0.635981 0.62689 0.608708 0.583708 0.558708 0.533708
0.508708 0.483709 0.458709 0.433709 0.408709 0.385981 0.345072 0.3178
0.199618 0.154163 -0.0185637 -0.136745 -0.136745 -0.191291 -0.245836
-0.309473 -0.318563 -0.354927 -0.3822 -0.391291 -0.409472 -0.409472
-0.418564 -0.42246 -0.426356 -0.430252 -0.434148 -0.438044 -0.44194
-0.445836 -0.449732 -0.453628 -0.457524 -0.461421 -0.465317 -0.469213
-0.473109 -0.470836 -0.468563 -0.466291 -0.464018 -0.464018 -0.454927
-0.453412 -0.451897 -0.450382 -0.448866 -0.447351 -0.445836 -0.445836
-0.436745 -0.436745 -0.436745 -0.438109 -0.439472 -0.440836 -0.4422
-0.443563 -0.444927 -0.446291 -0.447654 -0.449018 -0.450382 -0.451745
-0.453109 -0.454472 -0.455836 -0.4572 -0.458563 -0.459927 -0.461291
-0.462654 -0.464018 -0.470078 -0.476139 -0.554927;
#X coords 0 1 131 -1 340 220 1 0 0;
#X restore 553 108 graph;
#X obj 1678 267 tabosc4~ SEQwave;
#X text 145 506 (Shifts through octaves of midi notes);
#X floatatom 141 573 5 0 0 0 - - -;
#X obj 401 677 +;
#X floatatom 401 707 5 0 0 0 - - -;
#X obj 1738 731 s~ SEQvol;
#X obj 1757 652 *~;
#X obj 1779 617 r SEQvolSet;
#X obj 575 338 vsl 50 150 0 1 0 0 SEQvolSet SEQinitvolSet empty 0 -9
0 10 -99865 -260097 -1 14900 1;
#X obj 1408 325 r~ SEQvol;
#X obj 1821 732 dac~;
#X text 637 359 If no sound:;
#X text 657 376 -Check Wave;
#X text 658 393 -Resonance;
#X text 659 411 -Low Pass F.;
#X text 659 430 -Notes selected;
#X text 659 447 -Octave;
#X text 660 463 -BPM;
#X text 632 340 <= MASTER VOL for SEQ;
#X text 591 415 VOL;
#X text 582 392 MASTER;
#X text 590 403 SEQ;
#X text 435 678 Ocatve is added to note to form final midi note to
be sent to the wavetable synth part;
#X msg 523 509 \; SEQwave normalize;
#X obj 1514 566 select 1;
#X obj 631 609 v mySEQnote;
#X floatatom 553 633 5 0 0 0 - - -;
#X obj 1514 353 bng 15 250 50 0 empty empty empty 17 7 0 10 -262144
-1 -1;
#X obj 145 76 s SEQNoteChangeBang;
#X obj 1539 336 r SEQNoteChangeBang;
#X text 682 587 Note is stored and only played when Banged;
#X obj 1823 462 s receivelopseq;
#X floatatom 499 381 5 0 0 0 - sendlopseq -;
#X obj 1780 593 s SEQinitvolSet;
#X msg 1780 570 0.75;
#X obj -9 410 r SEQinitOctaves;
#X obj -10 451 loadbang;
#X msg -10 475 3;
#X obj -10 503 s SEQinitOctaves;
#X text 1805 228 This feature here delays midi and prodcues the resonance
though multiplication;
#X msg 370 33 6;
#X msg 406 33 7;
#X msg 442 31 5;
#X msg 480 31 4;
#X obj 525 10 bng 15 250 50 0 empty empty empty 17 7 0 10 -262144 -1
-1;
#X text 374 11 AUDIO DEMO NOTES #1;
#X obj 1528 167 r AUDIO DEMO LPF #1;
#X msg 1528 199 391;
#X obj 1528 229 s sendlopseq;
#X obj 596 57 s r AUDIO DEMO LPF #1;
#X obj 684 26 s SEQinitOctaves;
#X msg 635 9 0;
#X msg 745 57 1;
#X obj 789 70 s SEQinitvolSet;
#X msg 292 24 2;
#X msg 253 25 125;
#X text 244 7 BPM Audio Demo;
#X obj 544 -6 r QlistDrop;
#X connect 1 0 78 0;
#X connect 2 0 76 0;
#X connect 3 0 2 1;
#X connect 4 0 54 0;
#X connect 4 0 55 0;
#X connect 5 0 91 0;
#X connect 6 0 5 0;
#X connect 7 0 6 0;
#X connect 7 0 4 0;
#X connect 8 0 11 0;
#X connect 9 0 65 0;
#X connect 9 0 116 0;
#X connect 10 0 7 0;
#X connect 11 0 56 0;
#X connect 17 0 9 0;
#X connect 18 0 9 0;
#X connect 19 0 9 0;
#X connect 20 0 9 0;
#X connect 21 0 9 0;
#X connect 22 0 9 0;
#X connect 23 0 9 0;
#X connect 24 0 9 0;
#X connect 25 0 9 0;
#X connect 26 0 9 0;
#X connect 27 0 9 0;
#X connect 28 0 9 0;
#X connect 29 0 9 0;
#X connect 30 0 9 0;
#X connect 31 0 9 0;
#X connect 32 0 9 0;
#X connect 33 0 3 0;
#X connect 34 0 33 0;
#X connect 35 0 34 1;
#X connect 36 0 35 0;
#X connect 36 0 37 0;
#X connect 37 0 34 0;
#X connect 38 0 35 0;
#X connect 39 0 38 0;
#X connect 39 0 37 0;
#X connect 40 0 39 0;
#X connect 40 0 1 0;
#X connect 40 0 81 0;
#X connect 40 0 125 0;
#X connect 41 0 42 0;
#X connect 41 0 76 1;
#X connect 43 0 9 0;
#X connect 44 0 9 0;
#X connect 45 0 9 0;
#X connect 46 0 9 0;
#X connect 47 0 17 0;
#X connect 47 1 18 0;
#X connect 47 2 19 0;
#X connect 47 3 20 0;
#X connect 47 4 21 0;
#X connect 47 5 22 0;
#X connect 47 6 23 0;
#X connect 47 7 24 0;
#X connect 47 8 25 0;
#X connect 47 9 26 0;
#X connect 47 10 27 0;
#X connect 47 11 28 0;
#X connect 47 12 29 0;
#X connect 47 13 30 0;
#X connect 47 14 31 0;
#X connect 47 15 32 0;
#X connect 47 16 43 0;
#X connect 47 17 44 0;
#X connect 47 18 45 0;
#X connect 47 19 46 0;
#X connect 47 20 48 0;
#X connect 47 21 49 0;
#X connect 47 22 50 0;
#X connect 47 23 51 0;
#X connect 48 0 9 0;
#X connect 49 0 9 0;
#X connect 50 0 9 0;
#X connect 51 0 9 0;
#X connect 52 0 47 0;
#X connect 52 0 119 0;
#X connect 54 0 3 0;
#X connect 55 0 36 0;
#X connect 56 0 52 0;
#X connect 58 0 35 0;
#X connect 64 0 116 0;
#X connect 65 0 115 0;
#X connect 75 0 60 0;
#X connect 76 0 97 0;
#X connect 78 0 59 0;
#X connect 79 0 93 0;
#X connect 80 0 11 1;
#X connect 80 0 84 0;
#X connect 81 0 122 0;
#X connect 85 0 114 0;
#X connect 91 0 2 0;
#X connect 93 0 94 1;
#X connect 94 0 95 0;
#X connect 95 0 63 0;
#X connect 97 0 59 0;
#X connect 97 0 96 0;
#X connect 97 0 101 0;
#X connect 97 0 101 1;
#X connect 98 0 97 1;
#X connect 100 0 53 1;
#X connect 100 0 53 0;
#X connect 115 0 64 0;
#X connect 116 0 117 0;
#X connect 117 0 94 0;
#X connect 118 0 9 0;
#X connect 120 0 118 0;
#X connect 125 0 124 0;
#X connect 126 0 79 0;
#X connect 127 0 128 0;
#X connect 128 0 129 0;
#X connect 131 0 17 0;
#X connect 131 0 25 0;
#X connect 131 0 27 0;
#X connect 131 0 43 0;
#X connect 131 0 45 0;
#X connect 131 0 51 0;
#X connect 131 0 19 0;
#X connect 132 0 18 0;
#X connect 132 0 26 0;
#X connect 132 0 44 0;
#X connect 133 0 20 0;
#X connect 133 0 24 0;
#X connect 133 0 28 0;
#X connect 133 0 32 0;
#X connect 133 0 46 0;
#X connect 133 0 50 0;
#X connect 134 0 21 0;
#X connect 134 0 22 0;
#X connect 134 0 23 0;
#X connect 134 0 29 0;
#X connect 134 0 30 0;
#X connect 134 0 31 0;
#X connect 134 0 48 0;
#X connect 134 0 49 0;
#X connect 135 0 131 0;
#X connect 135 0 132 0;
#X connect 135 0 133 0;
#X connect 135 0 134 0;
#X connect 135 0 140 0;
#X connect 135 0 142 0;
#X connect 135 0 143 0;
#X connect 135 0 145 0;
#X connect 135 0 146 0;
#X connect 137 0 138 0;
#X connect 138 0 139 0;
#X connect 142 0 141 0;
#X connect 143 0 144 0;
#X connect 145 0 80 0;
#X connect 146 0 80 1;
#X connect 148 0 135 0;
#X coords 0 -1 1 1 800 400 2 100 100;
