#N canvas 410 102 450 300 10;
#X obj 114 115 vu 25 120 empty empty -1 -8 0 10 -1 -262144 1 0;
#X obj 112 52 env~;
#X obj 112 76 - 100;
#X obj 112 28 inlet~;
#X obj 47 45 outlet~;
#X obj 142 115 vu 25 120 empty empty -1 -8 0 10 -1 -262144 1 0;
#X obj 161 52 env~;
#X obj 161 76 - 100;
#X obj 161 28 inlet~;
#X obj 213 45 outlet~;
#X text 120 99 L;
#X text 148 99 R;
#X connect 1 0 2 0;
#X connect 2 0 0 0;
#X connect 3 0 1 0;
#X connect 3 0 4 0;
#X connect 6 0 7 0;
#X connect 7 0 5 0;
#X connect 8 0 6 0;
#X connect 8 0 9 0;
#X coords 0 -1 1 1 80 140 2 100 100;
